<svg xmlns="http://www.w3.org/2000/svg" viewBox="0 0 800 500">
  <!-- Sky -->
  <rect x="0" y="0" width="800" height="350" fill="#87CEEB"/>
  
  <!-- Water -->
  <rect x="0" y="350" width="800" height="150" fill="#0077BE"/>
  
  <!-- Clouds -->
  <g fill="white">
    <!-- Cloud 1 -->
    <circle cx="100" cy="50" r="25"/>
    <circle cx="125" cy="40" r="20"/>
    <circle cx="150" cy="50" r="25"/>
    
    <!-- Cloud 2 -->
    <circle cx="300" cy="80" r="20"/>
    <circle cx="325" cy="70" r="15"/>
    <circle cx="350" cy="80" r="20"/>
    
    <!-- Cloud 3 -->
    <circle cx="500" cy="60" r="30"/>
    <circle cx="530" cy="50" r="20"/>
    <circle cx="560" cy="60" r="30"/>
    
    <!-- Cloud 4 -->
    <circle cx="700" cy="100" r="15"/>
    <circle cx="720" cy="90" r="12"/>
    <circle cx="740" cy="100" r="15"/>
  </g>
  
  <!-- Raft -->
  <rect x="380" y="340" width="80" height="20" fill="#8B4513" stroke="#000" stroke-width="1"/>
  
  <!-- Character on Raft -->
  <circle cx="400" cy="330" r="10" fill="#FFA500" stroke="#000" stroke-width="1"/> <!-- Head -->
  <rect x="395" y="340" width="10" height="10" fill="#FFA500" stroke="#000" stroke-width="1"/> <!-- Body -->
  <circle cx="440" cy="330" r="10" fill="#FFA500" stroke="#000" stroke-width="1"/> <!-- Head -->
  <rect x="435" y="340" width="10" height="10" fill="#FFA500" stroke="#000" stroke-width="1"/> <!-- Body -->
</svg>